<?xml version="1.0" encoding="utf-8"?>
<!-- Generator: Adobe Illustrator 24.1.1, SVG Export Plug-In . SVG Version: 6.00 Build 0)  -->
<svg version="1.1" id="Layer_1" xmlns="http://www.w3.org/2000/svg" xmlns:xlink="http://www.w3.org/1999/xlink" x="0px" y="0px"
	 viewBox="0 0 300 300" style="enable-background:new 0 0 300 300;" xml:space="preserve">
<style type="text/css">
	.st0{fill:#ECAC96;}
	.st1{fill:#FFFFFF;}
</style>
<g>
	<path class="st0" d="M264.9,127.4H36.3c-2.8,0-5.1-2.3-5.1-5.1V51.8c0-2.8,2.3-5.1,5.1-5.1h228.6c2.8,0,5.1,2.3,5.1,5.1v70.5
		C270.1,125.1,267.8,127.4,264.9,127.4z"/>
	<ellipse class="st1" cx="107.4" cy="120.1" rx="37.3" ry="24.5"/>
	<ellipse class="st1" cx="196.3" cy="120.1" rx="37.3" ry="24.5"/>
	<g>
		<path class="st0" d="M27.1,170.6c0,0.4,0,0.8,0,1.2L27.1,170.6L27.1,170.6z"/>
		<path class="st0" d="M280,166.6v30.7H25.1v-30.7c0-0.4,0-0.8,0-1.2c0.6-14.2,11.1-25.5,24-25.5H256c12.9,0,23.4,11.3,24,25.5
			C280,165.8,280,166.2,280,166.6z"/>
		<path class="st0" d="M280,220.6v-11.5H25.1v11.5c0,0.2,0,0.3,0,0.5c0.6,5.3,11.1,9.6,24,9.6H256c12.9,0,23.4-4.2,24-9.6
			C280,220.9,280,220.7,280,220.6z"/>
		<path class="st0" d="M280,221.8v17.9c0,4-2.9,7.3-6.5,7.3h-6.8c-3.6,0-6.6-3.3-6.6-7.3v-17.9H280z"/>
		<path class="st0" d="M44.9,219.8v17.9c0,4-2.9,7.3-6.5,7.3h-6.8c-3.6,0-6.6-3.3-6.6-7.3v-17.9H44.9z"/>
	</g>
</g>
</svg>
