<?xml version="1.0" encoding="utf-8"?>
<!-- Generator: Adobe Illustrator 24.1.1, SVG Export Plug-In . SVG Version: 6.00 Build 0)  -->
<svg version="1.1" id="Layer_1" xmlns="http://www.w3.org/2000/svg" xmlns:xlink="http://www.w3.org/1999/xlink" x="0px" y="0px"
	 viewBox="0 0 300 300" style="enable-background:new 0 0 300 300;" xml:space="preserve">
<style type="text/css">
	.st0{fill:#ECAC96;}
	.st1{fill:#FFFFFF;}
</style>
<g>
	<g>
		
			<ellipse transform="matrix(0.6312 -0.7756 0.7756 0.6312 -92.8967 165.6497)" class="st0" cx="127.7" cy="180.5" rx="96.9" ry="10.9"/>
		
			<ellipse transform="matrix(0.786 -0.6183 0.6183 0.786 -68.3171 123.4156)" class="st0" cx="144.1" cy="160.4" rx="11" ry="122.9"/>
		<path class="st0" d="M76.9,126.6c11,1.6,22.2-3.5,29.1-13c10-5.8,16.2-16.1,16-26.7c-0.4-17.4-18-25.8-21.4-27.2
			C88,54.1,70.1,55.2,58.7,68c-9.1,10.4-11.9,26-6.1,39C53.6,109.2,60.6,124.3,76.9,126.6z"/>
		<g>
			<path class="st0" d="M227.4,108c-0.1,3.1-1.3,8-5.1,11.5c-5.1,4.7-12.2,4-13.7,3.8l-24.2-14.5l-24-16.2c-0.7-1.8-1.7-5.8,0-9.4
				c2.3-4.7,8.2-5.8,11.2-6.4C191,73.3,227.7,90.1,227.4,108z"/>
			<polygon class="st1" points="248.3,118.4 160.5,61.8 179.3,31.1 267.1,87.7 			"/>
		</g>
		<ellipse transform="matrix(0.6015 -0.7989 0.7989 0.6015 18.04 168.8827)" class="st0" cx="178.3" cy="66.4" rx="30.4" ry="5.2"/>
		<ellipse transform="matrix(0.6014 -0.799 0.799 0.6014 11.5474 222.8673)" class="st0" cx="229.1" cy="99.9" rx="26.7" ry="5.2"/>
		<ellipse transform="matrix(0.6014 -0.799 0.799 0.6014 19.9692 183.0599)" class="st0" cx="193.4" cy="71.5" rx="26.7" ry="5.2"/>
		<ellipse transform="matrix(0.6014 -0.799 0.799 0.6014 19.0032 197.2453)" class="st0" cx="207.2" cy="79.6" rx="26.7" ry="5.2"/>
		<ellipse transform="matrix(0.6014 -0.799 0.799 0.6014 14.2116 210.1388)" class="st0" cx="217.7" cy="90.8" rx="26.7" ry="5.2"/>
		
			<ellipse transform="matrix(0.5112 -0.8595 0.8595 0.5112 20.662 213.7221)" class="st0" cx="198.2" cy="88.7" rx="8.2" ry="30.8"/>
		<path class="st0" d="M188.6,58.6"/>
		<path class="st0" d="M193.9,55.2"/>
		<path class="st0" d="M193.9,55.2"/>
		<polygon class="st0" points="191.2,56.5 183.8,71.5 196.1,60 186.4,76.3 175.6,71.5 		"/>
		<polygon class="st0" points="204.6,64.3 197.5,79.6 210.2,67.6 199.2,84.9 190.7,79.6 		"/>
		<polygon class="st0" points="217.7,72.8 210.6,87.1 223.5,75.9 212.1,91.7 203.5,86.7 		"/>
		<polygon class="st0" points="230.3,81.2 221.9,97 235.1,84.9 222.8,104.2 211.2,95.3 		"/>
		<polygon class="st0" points="236.3,98.9 223.2,118.6 213.8,111.1 		"/>
		<polygon class="st0" points="169.9,69 160.4,83.1 163.4,86.3 		"/>
	</g>
</g>
</svg>
