<?xml version="1.0" encoding="utf-8"?>
<!-- Generator: Adobe Illustrator 24.1.1, SVG Export Plug-In . SVG Version: 6.00 Build 0)  -->
<svg version="1.1" id="Layer_1" xmlns="http://www.w3.org/2000/svg" xmlns:xlink="http://www.w3.org/1999/xlink" x="0px" y="0px"
	 viewBox="0 0 300 300" style="enable-background:new 0 0 300 300;" xml:space="preserve">
<style type="text/css">
	.st0{fill:#ECAC96;}
	.st1{fill:#ECAC96;stroke:#FFFFFF;stroke-miterlimit:10;}
</style>
<g>
	<g>
		<g>
			<g>
				<path class="st0" d="M101.6,271.1H91.5c-0.6,0-1-0.5-1-1v-16.5c0-0.6,0.5-1,1-1h10.1c0.6,0,1,0.5,1,1v16.5
					C102.6,270.7,102.2,271.1,101.6,271.1z"/>
				<path class="st0" d="M206.3,271.1h-10.1c-0.6,0-1-0.5-1-1v-16.5c0-0.6,0.5-1,1-1h10.1c0.6,0,1,0.5,1,1v16.5
					C207.3,270.7,206.9,271.1,206.3,271.1z"/>
				<path class="st0" d="M204.7,258.1l-98.3,1.1c-8.5-0.1-15-2.4-19.5-4.7c-31.4-16.2-33.3-67.6-33.4-70.1"/>
				<path class="st0" d="M91.6,258.1l98.3,1.1c8.5-0.1,15-2.4,19.5-4.7c31.4-16.2,33.3-67.6,33.4-70.1"/>
				<ellipse class="st0" cx="148.1" cy="179" rx="94.7" ry="30.8"/>
				<path class="st0" d="M232.2,206.4"/>
				
					<ellipse transform="matrix(4.657781e-02 -0.9989 0.9989 4.657781e-02 46.3845 413.856)" class="st0" cx="240" cy="182.6" rx="5.2" ry="2.8"/>
				
					<ellipse transform="matrix(4.657781e-02 -0.9989 0.9989 4.657781e-02 -128.7717 230.3422)" class="st0" cx="56.3" cy="182.6" rx="5.2" ry="2.8"/>
				<ellipse class="st0" cx="150.3" cy="211.9" rx="66.4" ry="24.7"/>
			</g>
			<path class="st0" d="M230.8,199.7l-27.7-9.8c6.7-26,16.2-44.6,23.4-56.3c8.9-14.7,14.6-23.7,23.8-24.9
				c15.5-2,35.8,18.4,31.9,34.1c-2.5,10-14.5,17.3-28.7,17.7L230.8,199.7z"/>
			<path class="st0" d="M64.5,199.7l27.7-9.8c-6.7-26-16.2-44.6-23.4-56.3c-8.9-14.7-14.6-23.7-23.8-24.9
				c-15.5-2-35.8,18.4-31.9,34.1c2.5,10,14.5,17.3,28.7,17.7L64.5,199.7z"/>
		</g>
		<g>
			<path class="st0" d="M88.5,159.4c46-14.3,85.7-10.2,119.2,2.7c1.3,0.5,2.6,1,3.9,1.5c2.4-12.3,8-34.5,20.5-51
				c2.9-3.8,6.9-3.8,9.5-10c5.9-14.1,0.1-38-0.2-39.4c-9.6-38.4-53.5-40.5-81.4-41.9c-18.2-0.9-45,0.5-77.5,12.8"/>
			<path class="st0" d="M207.2,161.2c-45.9-15-85.6-11.4-119.2,1c-1.3,0.5-2.6,1-3.9,1.5c-2.3-12.3-7.7-34.6-20.2-51.3
				c-2.9-3.8-6.8-3.9-9.4-10.1c-5.8-14.2,0.2-38,0.5-39.4c9.9-38.2,53.8-39.8,81.6-40.8c18.2-0.7,45,1.2,77.4,13.9"/>
		</g>
		<path class="st0" d="M72.9,163.4"/>
		<path class="st1" d="M80.2,156.3c53.2-24.1,95.8-18.2,128-3.8c2.1,0.9,4.2,1.9,6.3,3"/>
	</g>
	<polygon class="st0" points="82.6,158.3 79.5,160.4 75.7,154.4 78.8,152.3 	"/>
</g>
</svg>
